<?xml version="1.0" standalone="no"?>
<!DOCTYPE svg PUBLIC "-//W3C//DTD SVG 20010904//EN"
 "http://www.w3.org/TR/2001/REC-SVG-20010904/DTD/svg10.dtd">
<svg version="1.0" xmlns="http://www.w3.org/2000/svg"
 width="225.000000pt" height="225.000000pt" viewBox="0 0 225.000000 225.000000"
 preserveAspectRatio="xMidYMid meet">

<g transform="translate(0.000000,225.000000) scale(0.100000,-0.100000)"
fill="#000000" stroke="none">
<path d="M540 1570 c0 -118 2 -130 18 -130 10 0 73 7 141 15 68 9 126 13 129
11 6 -7 -1 -9 -153 -43 l-130 -30 -3 -117 -3 -117 43 5 c73 10 372 44 613 71
127 14 284 32 350 40 67 8 126 15 133 15 8 0 12 22 12 69 l0 68 -77 -13 c-43
-6 -157 -24 -253 -39 -96 -14 -221 -34 -277 -44 -107 -18 -139 -13 -55 9 26 7
67 18 92 25 25 8 137 39 250 70 253 70 300 85 300 94 0 16 -56 90 -83 111 -16
12 -50 31 -78 41 -46 18 -83 19 -509 19 l-460 0 0 -130z"/>
<path d="M210 1070 c0 -16 7 -20 30 -20 l30 0 0 -105 0 -105 25 0 25 0 0 105
0 105 35 0 c28 0 35 4 35 20 0 19 -7 20 -90 20 -83 0 -90 -1 -90 -20z"/>
<path d="M430 965 l0 -125 75 0 c68 0 75 2 75 20 0 17 -7 20 -50 20 l-50 0 0
35 c0 35 0 35 45 35 33 0 45 4 45 15 0 11 -12 15 -45 15 -45 0 -45 0 -45 35
l0 35 50 0 c43 0 50 3 50 20 0 18 -7 20 -75 20 l-75 0 0 -125z"/>
<path d="M620 966 c0 -118 1 -126 19 -126 17 0 20 8 23 48 4 62 25 62 58 0 21
-40 30 -48 53 -48 l29 0 -31 56 c-29 55 -30 55 -10 75 24 24 24 71 0 93 -12
11 -43 20 -80 23 l-61 6 0 -127z m103 63 c16 -26 1 -49 -33 -49 -26 0 -30 3
-30 28 0 16 3 32 7 36 12 11 45 2 56 -15z"/>
<path d="M837 1083 c-4 -3 -7 -60 -7 -125 l0 -118 25 0 c23 0 25 3 25 50 0 38
4 50 15 50 8 0 26 -22 40 -50 20 -40 30 -50 50 -50 31 0 31 3 -4 67 -22 41
-26 53 -15 57 24 9 36 48 25 78 -7 19 -21 30 -48 37 -43 12 -96 14 -106 4z
m99 -47 c25 -19 8 -50 -30 -54 -24 -3 -26 0 -26 32 0 40 20 48 56 22z"/>
<path d="M1095 1078 c-13 -41 -65 -223 -65 -230 0 -20 41 -6 50 18 9 22 15 25
52 22 36 -2 44 -7 46 -25 3 -18 10 -23 31 -23 l28 0 -37 123 c-36 121 -37 122
-68 125 -20 2 -34 -2 -37 -10z m53 -104 c16 -55 16 -54 -19 -54 -29 0 -31 2
-25 26 4 15 10 40 13 56 7 35 16 27 31 -28z"/>
<path d="M1270 965 l0 -125 75 0 c68 0 75 2 75 20 0 18 -7 20 -55 20 l-55 0 0
105 c0 98 -1 105 -20 105 -19 0 -20 -7 -20 -125z"/>
<path d="M1460 1070 c0 -15 7 -20 25 -20 25 0 25 -1 25 -90 0 -89 0 -90 -25
-90 -16 0 -25 -6 -25 -15 0 -12 16 -15 80 -15 63 0 80 3 80 14 0 9 -12 16 -27
18 -28 3 -28 3 -31 91 l-3 87 31 0 c23 0 30 4 30 20 0 18 -7 20 -80 20 -73 0
-80 -2 -80 -20z"/>
<path d="M1650 965 c0 -118 1 -125 20 -125 18 0 20 7 20 82 0 48 4 78 9 73 5
-6 22 -41 39 -80 27 -63 34 -70 61 -73 l31 -3 0 125 c0 119 -1 126 -20 126
-18 0 -20 -7 -21 -87 l-1 -88 -41 88 c-37 79 -43 87 -69 87 l-28 0 0 -125z"/>
<path d="M1870 966 l0 -126 24 0 c23 0 25 4 28 52 l3 52 32 -52 c28 -45 37
-52 63 -52 l32 0 -45 63 -44 64 38 54 c22 29 39 57 39 61 0 5 -11 8 -24 8 -18
0 -32 -13 -57 -52 l-34 -53 -5 50 c-4 42 -8 50 -27 53 -23 3 -23 2 -23 -122z"/>
<path d="M1490 729 c-69 -5 -255 -17 -415 -28 -159 -11 -345 -23 -413 -27
l-122 -7 0 -63 0 -64 575 0 575 0 0 100 0 100 -37 -1 c-21 -1 -94 -6 -163 -10z"/>
</g>
</svg>
