<?xml version="1.0" encoding="UTF-8"?>
<svg version="1.1" viewBox="0 0 2000 2000" width="1280" height="1280" xmlns="http://www.w3.org/2000/svg">
<path transform="translate(0)" d="m0 0h2e3v2e3h-2e3z" fill="#FCFCFC"/>
<path transform="translate(473,486)" d="m0 0h810l23 3 25 6 20 7 22 10 19 11 16 11 17 14 22 22 13 17 10 15 12 22 8 18 3 9-8 3-67 19-75 21-340 95-42 12-63 17-23 7 83-14 108-16 141-22 148-23 91-14 59-9 1 1v57l-1 71-13 2-139 16-590 67-239 27-41 5h-10v-212l5-2 56-13 91-22 85-19 20-5-16 1-59 7-171 18h-11z" fill="#F1673F"/>
<path transform="translate(1491,1337)" d="m0 0h14l1 6-1 79v99l-1 1h-1030l-1-23v-94l36-3 90-6 345-23 441-29z" fill="#F1673F"/>
<path transform="translate(740,1034)" d="m0 0h71l23 2 16 4 14 7 11 10 6 10 4 13 1 6v19l-3 13-5 10-5 7-10 8-11 5-10 2v2l5 2 7 6 8 13 8 16 20 41 11 24v2h-49l-6-12-13-30-11-25-6-11-5-6-10-5-18-3v44l-1 48-1 1-41-1z" fill="#010001"/>
<path transform="translate(549,1034)" d="m0 0h71l23 2 16 4 14 7 11 10 7 12 3 10 1 8v18l-4 16-6 10-5 6-10 7-12 5-6 2 9 7 8 11 11 21 13 28 14 29 3 9-47 1-3-2-18-41-11-25-5-10-7-8-9-4-13-2h-4l-1 7v83l-1 2h-28l-14-1z" fill="#010001"/>
<path transform="translate(1466,1034)" d="m0 0h52l5 10 12 27 16 35 15 33 14 31 7 17 1-153h39v170l-1 53h-50l-8-16-16-36-13-29-16-36-13-29-3-7v-3h-3l1 7v55l-1 94h-38z" fill="#010001"/>
<path transform="translate(976,1034)" d="m0 0h59l15 51 48 162 2 10h-45l-2-1-10-36-2-6-4-1h-73l-2 11-9 30-3 3-39-1 1-7 9-31 24-81 19-64 11-38z" fill="#010001"/>
<path transform="translate(1661,1034)" d="m0 0h42l1 12v86l4-4 7-12 24-36 21-32 9-14h51l-2 5-13 18-14 20-13 18-24 34-6 8-1 5 34 50 13 19 17 25 12 18v3h-52l-4-4-13-21-15-24-13-21-15-24-5-9-2-1v102l-1 2h-41l-1-1z" fill="#010001"/>
<path transform="translate(380,1034)" d="m0 0h133v37l-90 1v53h86l1 2-1 32-1 1h-85v61h90l1 2-1 33-1 1h-132z" fill="#010001"/>
<path transform="translate(1297,1034)" d="m0 0h141l-1 35h-48v153h49l-1 35h-140v-34l1-1 47-1v-151l-48-1z" fill="#010001"/>
<path transform="translate(232,1033)" d="m0 0h30l85 1 1 1v12l-1 23h-60l-1 187h-43l-1-186-60-1v-36z" fill="#010001"/>
<path transform="translate(1126,1034)" d="m0 0h42l1 185 93 1 1 2-1 34-1 1h-134l-1-1z" fill="#010001"/>
<path transform="translate(593,1069)" d="m0 0 29 1 12 3 10 6 6 10 1 5v13l-5 10-4 5-10 6-11 3-9 1h-20l-1-7v-48l1-7z" fill="#FCF8F7"/>
<path transform="translate(784,1069)" d="m0 0 29 1 12 3 8 5 6 7 3 9v11l-3 9-9 10-10 5-8 2-9 1h-20l-1-4 1-58z" fill="#FCFAF9"/>
<path transform="translate(1e3 1079)" d="m0 0h2l5 16 20 71 3 12h-57l2-10 10-35 13-46z" fill="#FCF8F6"/>
</svg>
